<svg width="14" height="12" viewBox="0 0 14 12" fill="none" xmlns="http://www.w3.org/2000/svg">
<path fill-rule="evenodd" clip-rule="evenodd" d="M13.3539 5.64724C13.4475 5.74099 13.5001 5.86807 13.5001 6.00057C13.5001 6.13307 13.4475 6.26015 13.3539 6.3539L8.6959 11.0206C8.64979 11.0683 8.59464 11.1065 8.53365 11.1327C8.47266 11.1589 8.40706 11.1728 8.34067 11.1734C8.27428 11.174 8.20843 11.1613 8.14697 11.1362C8.08551 11.1111 8.02967 11.074 7.9827 11.0271C7.93573 10.9802 7.89858 10.9244 7.87341 10.8629C7.84824 10.8015 7.83556 10.7357 7.83611 10.6693C7.83665 10.6029 7.85041 10.5373 7.87659 10.4763C7.90276 10.4152 7.94083 10.36 7.98856 10.3139L11.7939 6.50124L1.00056 6.50857C0.867954 6.50875 0.740707 6.45624 0.646814 6.36259C0.552921 6.26895 0.500073 6.14184 0.499896 6.00924C0.499719 5.87663 0.552228 5.74938 0.645871 5.65549C0.739514 5.56159 0.866621 5.50875 0.999228 5.50857L11.7952 5.5019L7.9879 1.68724C7.94016 1.64109 7.9021 1.5859 7.87592 1.52489C7.84975 1.46387 7.83599 1.39826 7.83544 1.33187C7.83489 1.26548 7.84758 1.19964 7.87275 1.13821C7.89792 1.07677 7.93507 1.02096 7.98204 0.974039C8.02901 0.927114 8.08485 0.890014 8.14631 0.864903C8.20777 0.839791 8.27361 0.827172 8.34 0.82778C8.40639 0.828388 8.47199 0.842211 8.53298 0.868444C8.59397 0.894677 8.64913 0.932794 8.69523 0.98057L13.3539 5.64724Z" fill="black"/>
</svg>
