<svg width="110" height="21" viewBox="0 0 110 21" fill="none" xmlns="http://www.w3.org/2000/svg">
<g clip-path="url(#clip0_313_750)">
<path d="M0 20.1532V0.846924H7.26235L11.5217 14.6909L15.8424 0.846924H23.1046V20.1532H18.3856V4.97987L13.5134 20.1532H9.52991L4.68835 4.97987V20.1532H0Z" fill="#0059FF"/>
<path d="M36.1219 20.5C34.0383 20.5 32.1997 20.0858 30.6063 19.2572C29.0129 18.4288 27.7667 17.263 26.8679 15.7601C25.9689 14.2573 25.5195 12.5038 25.5195 10.5C25.5195 8.49615 25.9689 6.74277 26.8679 5.23989C27.7667 3.73699 29.0129 2.57129 30.6063 1.74277C32.1997 0.914257 34.0383 0.5 36.1219 0.5C38.2261 0.5 40.0749 0.914257 41.6683 1.74277C43.2617 2.57129 44.5079 3.73699 45.4067 5.23989C46.326 6.74277 46.7857 8.49615 46.7857 10.5C46.7857 12.5038 46.326 14.2573 45.4067 15.7601C44.5079 17.263 43.2617 18.4288 41.6683 19.2572C40.0749 20.0858 38.2261 20.5 36.1219 20.5ZM36.1219 16.7428C37.1229 16.7428 38.0423 16.5115 38.8798 16.0491C39.7173 15.5674 40.3813 14.8641 40.8716 13.9392C41.3823 13.0145 41.6377 11.868 41.6377 10.5C41.6377 9.13199 41.3823 7.98555 40.8716 7.06069C40.3813 6.13584 39.7173 5.4422 38.8798 4.97976C38.0423 4.49808 37.1229 4.25723 36.1219 4.25723C35.1413 4.25723 34.2323 4.49808 33.3947 4.97976C32.5571 5.4422 31.8831 6.13584 31.3723 7.06069C30.8821 7.98555 30.6369 9.13199 30.6369 10.5C30.6369 11.868 30.8821 13.0145 31.3723 13.9392C31.8831 14.8641 32.5571 15.5674 33.3947 16.0491C34.2323 16.5115 35.1413 16.7428 36.1219 16.7428Z" fill="#0059FF"/>
<path d="M49.1953 20.1532V0.846924H55.3545L63.2603 14.6041V0.846924H67.9487V20.1532H61.7588L53.853 6.39605V20.1532H49.1953Z" fill="#0059FF"/>
<path d="M76.3519 20.1532V4.86427H69.7637V0.846924H87.7511V4.86427H81.1629V20.1532H76.3519Z" fill="#0059FF"/>
<path d="M89.9629 20.1532V16.5695H92.8433V4.43074H89.9629V0.846924H100.504V4.43074H97.6849V16.5695H100.504V20.1532H89.9629Z" fill="#0059FF"/>
<path d="M106.12 20.1531C105.303 20.1531 104.598 19.8737 104.006 19.315C103.413 18.7562 103.117 18.0915 103.117 17.3207C103.117 16.5308 103.413 15.8661 104.006 15.3266C104.598 14.7871 105.303 14.5173 106.12 14.5173C106.937 14.5173 107.632 14.7871 108.204 15.3266C108.796 15.8661 109.092 16.5308 109.092 17.3207C109.092 18.0915 108.796 18.7562 108.204 19.315C107.632 19.8737 106.937 20.1531 106.12 20.1531Z" fill="#0059FF"/>
</g>
<defs>
<clipPath id="clip0_313_750">
<rect width="110" height="20" fill="white" transform="translate(0 0.5)"/>
</clipPath>
</defs>
</svg>
