<svg width="32" height="32" viewBox="0 0 32 32" fill="none" xmlns="http://www.w3.org/2000/svg">
<path d="M9.33948 8.00602C8.98437 8.00453 8.6444 8.14418 8.39435 8.39422C8.1443 8.64427 8.00466 8.98425 8.00614 9.33935C8.00763 9.69446 8.15012 10.0356 8.40226 10.2878L21.7124 23.5979C21.9645 23.85 22.3057 23.9925 22.6608 23.994C23.0159 23.9955 23.3559 23.8558 23.6059 23.6058C23.856 23.3557 23.9956 23.0158 23.9941 22.6607C23.9926 22.3056 23.8501 21.9644 23.598 21.7123L10.2879 8.40214C10.0357 8.14999 9.69458 8.0075 9.33948 8.00602Z" fill="#046BF1"/>
<path d="M23.9941 9.33923C23.9956 8.98413 23.8559 8.64415 23.6059 8.39411C23.3558 8.14406 23.0159 8.00441 22.6608 8.0059C22.3057 8.00738 21.9645 8.14987 21.7124 8.40202L8.40225 21.7121C8.1501 21.9643 8.00761 22.3054 8.00613 22.6605C8.00464 23.0156 8.14429 23.3556 8.39434 23.6057C8.64438 23.8557 8.98435 23.9954 9.33946 23.9939C9.69457 23.9924 10.0357 23.8499 10.2879 23.5978L23.598 10.2876C23.8501 10.0355 23.9926 9.69434 23.9941 9.33923Z" fill="#046BF1"/>
</svg>
